<?xml version="1.0" standalone="no"?>
<!DOCTYPE svg PUBLIC "-//W3C//DTD SVG 20010904//EN"
 "http://www.w3.org/TR/2001/REC-SVG-20010904/DTD/svg10.dtd">
<svg version="1.0" xmlns="http://www.w3.org/2000/svg"
 width="951.000000pt" height="1007.000000pt" viewBox="0 0 951.000000 1007.000000"
 preserveAspectRatio="xMidYMid meet">

<g transform="translate(0.000000,1007.000000) scale(0.100000,-0.100000)"
fill="#000000" stroke="none">
<path d="M3805 10020 c-3 -5 -14 -10 -24 -10 -21 0 -81 -55 -100 -93 -27 -52
-11 -217 21 -217 5 0 8 -6 8 -13 0 -7 9 -19 20 -27 19 -14 20 -26 20 -203 0
-120 -4 -196 -11 -209 -6 -12 -246 -256 -533 -543 -562 -563 -576 -577 -576
-600 0 -8 -4 -15 -10 -15 -5 0 -10 -15 -10 -34 0 -19 -4 -38 -10 -41 -7 -4
-10 -375 -10 -1079 l0 -1074 -35 -38 c-19 -22 -35 -47 -35 -56 0 -9 -5 -20
-10 -23 -14 -9 -12 -83 3 -127 16 -46 56 -91 99 -115 38 -19 180 -23 186 -4 2
6 10 11 18 11 8 0 14 5 14 10 0 6 5 10 11 10 31 0 79 96 79 157 0 48 -28 112
-66 150 l-24 24 0 1070 0 1069 550 550 c391 391 555 562 568 590 9 22 20 40
24 40 5 0 8 100 8 223 0 207 1 224 21 256 11 19 27 40 34 48 36 36 43 161 13
215 -20 35 -80 88 -99 88 -10 0 -21 5 -24 10 -3 6 -30 10 -60 10 -30 0 -57 -4
-60 -10z" fill= "rgb(256,256,256)"/>
<path d="M4915 9956 c-90 -33 -145 -109 -145 -200 0 -48 5 -66 35 -111 19 -30
39 -55 45 -55 7 0 10 -372 10 -1125 l0 -1125 -435 -435 c-411 -412 -436 -435
-470 -435 -51 0 -125 -20 -157 -42 -16 -11 -41 -39 -58 -63 -26 -38 -30 -52
-30 -114 0 -41 4 -71 10 -71 6 0 10 -9 10 -20 0 -11 5 -20 10 -20 6 0 10 -5
10 -11 0 -34 97 -79 171 -79 33 0 59 4 59 10 0 6 9 10 20 10 11 0 20 5 20 10
0 6 6 10 14 10 8 0 25 15 37 33 13 17 26 34 29 37 3 3 12 32 20 64 l14 59 463
464 c255 255 463 470 463 478 0 8 5 15 10 15 6 0 10 13 10 29 0 17 5 33 10 36
7 4 10 395 10 1139 l0 1133 33 44 c50 67 75 167 47 184 -5 3 -10 16 -10 28 0
32 -86 107 -141 124 -51 15 -73 15 -114 -1z" fill= "rgb(256,256,256)"/>
<path d="M4356 9923 c-27 -16 -63 -45 -80 -66 -27 -34 -30 -45 -31 -110 0 -66
19 -137 36 -137 4 0 14 -15 23 -34 14 -29 16 -83 16 -385 0 -315 -2 -355 -17
-379 -10 -15 -233 -243 -496 -507 -391 -391 -484 -491 -508 -537 l-29 -57 0
-925 c0 -924 0 -925 -21 -963 -12 -21 -26 -41 -31 -44 -6 -4 -11 -42 -11 -86
-1 -69 3 -84 25 -117 14 -21 43 -49 64 -64 32 -21 49 -25 109 -25 64 0 76 3
119 32 26 18 50 40 54 49 3 10 12 23 19 30 13 13 17 52 13 122 -2 37 -48 120
-66 120 -7 0 -19 11 -28 25 -14 22 -16 111 -16 905 0 561 4 888 10 900 5 10
230 239 500 508 269 269 490 497 490 506 0 9 5 16 10 16 6 0 10 9 10 20 0 11
5 20 10 20 6 0 10 140 10 399 l0 399 38 39 c53 53 72 95 72 164 0 115 -78 193
-205 205 -30 3 -52 -2 -89 -23z" fill= "rgb(256,256,256)"/>
<path d="M5815 9883 c-32 -7 -79 -30 -102 -50 -33 -29 -63 -90 -63 -129 0 -19
-5 -44 -11 -55 -6 -11 -68 -78 -137 -148 -146 -148 -153 -156 -184 -213 l-23
-43 0 -705 c0 -592 2 -713 15 -752 8 -27 18 -48 22 -48 4 0 8 -7 8 -15 0 -8 5
-15 10 -15 6 0 10 -5 10 -10 0 -6 108 -118 240 -250 l240 -239 3 -1313 c2
-722 6 -1326 11 -1343 22 -84 88 -175 151 -207 17 -9 58 -23 93 -32 57 -14
211 -16 1498 -16 1551 0 1432 4 1488 -45 33 -29 157 -47 171 -25 3 5 14 10 24
10 9 0 27 9 39 20 12 11 25 20 30 20 4 0 18 18 30 41 17 31 22 58 22 115 0 43
-4 74 -10 74 -5 0 -10 6 -10 13 0 26 -59 77 -111 95 -75 26 -162 8 -213 -43
l-25 -25 -1459 0 c-1401 0 -1460 1 -1475 18 -16 17 -17 124 -17 1335 0 1314
-2 1397 -32 1397 -5 0 -8 9 -8 20 0 11 -3 20 -8 20 -4 0 -14 11 -23 25 -8 14
-122 132 -252 263 l-237 238 0 662 0 662 139 139 c128 128 142 139 182 144
107 14 150 39 198 117 38 63 22 176 -35 236 -33 36 -141 69 -189 57z" fill= "rgb(256,256,256)"/>
<path d="M2463 9727 c-75 -28 -133 -107 -133 -180 0 -46 -4 -52 -62 -115 -35
-37 -112 -114 -171 -172 l-108 -105 -177 -6 c-180 -6 -242 -14 -242 -30 0 -5
-9 -9 -20 -9 -11 0 -20 -4 -20 -10 0 -5 -5 -10 -10 -10 -6 0 -46 -35 -89 -78
-76 -78 -78 -79 -140 -86 -35 -4 -73 -11 -86 -16 -59 -22 -125 -122 -125 -190
0 -58 63 -170 97 -170 7 0 13 -4 13 -10 0 -5 11 -10 24 -10 14 0 28 -5 32 -11
6 -10 38 -9 111 7 39 8 123 84 123 112 0 12 5 24 10 27 6 3 10 23 10 45 0 34
8 46 80 119 l80 80 162 5 c173 4 248 13 248 27 0 5 9 9 20 9 11 0 20 5 20 10
0 6 5 10 10 10 12 0 76 56 129 114 43 47 76 80 168 169 59 55 77 67 104 67 19
0 52 7 74 16 22 8 48 17 58 21 9 3 17 8 17 12 0 4 8 16 18 27 36 40 47 76 46
148 -1 42 -6 72 -13 74 -6 2 -11 9 -11 15 -1 22 -45 62 -92 85 -52 24 -105 27
-155 9z" fill= "rgb(256,256,256)"/>
<path d="M3204 9682 c-89 -50 -124 -106 -124 -202 l0 -64 -520 -518 c-516
-514 -521 -519 -572 -528 -28 -6 -173 -10 -323 -10 -264 0 -275 -1 -317 -22
-23 -13 -49 -29 -56 -35 -7 -7 -19 -16 -26 -20 -21 -12 -76 -105 -76 -128 0
-12 -5 -26 -10 -31 -12 -12 -8 -1287 5 -1346 4 -21 11 -38 16 -38 5 0 9 -7 9
-16 0 -9 117 -133 260 -276 l260 -260 0 -164 c0 -171 1 -169 -48 -219 -6 -8
-12 -21 -12 -29 0 -9 -4 -16 -10 -16 -6 0 -10 -32 -10 -75 0 -43 4 -75 10 -75
6 0 10 -7 10 -16 0 -19 54 -74 94 -94 35 -18 168 -19 174 -1 2 6 10 11 18 11
41 0 104 107 104 174 0 51 -29 119 -64 149 -19 17 -21 32 -27 200 -8 254 0
239 -259 499 -114 114 -228 230 -253 257 l-47 50 0 626 0 626 25 24 24 25 310
0 c196 0 312 4 316 10 3 6 17 10 31 10 13 0 24 5 24 10 0 6 7 10 15 10 8 0 15
5 15 10 0 6 5 10 12 10 7 0 254 242 550 538 296 295 546 538 555 540 76 13
173 70 173 102 0 5 5 10 10 10 6 0 10 14 10 30 0 17 5 30 10 30 6 0 10 18 10
39 0 22 -4 43 -10 46 -5 3 -10 15 -10 25 0 33 -54 91 -112 121 -46 24 -122 24
-164 1z" fill= "rgb(256,256,256)"/>
<path d="M6859 9541 c-47 -30 -89 -74 -89 -93 0 -6 -5 -26 -12 -44 -9 -26 -8
-42 6 -88 10 -31 23 -62 30 -69 48 -49 46 -14 46 -729 0 -516 -3 -673 -12
-690 -15 -26 -34 -48 -42 -48 -7 0 -96 -89 -96 -95 0 -7 -148 -155 -155 -155
-6 0 -95 -89 -95 -96 0 -3 -22 -27 -50 -54 l-50 -49 0 -580 0 -581 48 -52 c26
-28 69 -72 96 -97 60 -57 136 -133 197 -197 26 -27 82 -83 125 -125 44 -42
100 -98 125 -125 25 -27 55 -56 65 -64 29 -23 105 -58 144 -66 19 -4 446 -9
949 -11 l914 -3 51 -38 c48 -35 55 -37 126 -37 73 0 77 1 126 40 28 22 57 53
64 70 19 42 17 143 -3 182 -18 34 -84 93 -104 93 -7 0 -13 5 -13 10 0 6 -30
10 -70 10 -40 0 -70 -4 -70 -10 0 -5 -8 -10 -18 -10 -10 0 -35 -16 -56 -35
l-39 -35 -911 0 c-791 1 -914 3 -931 16 -11 8 -145 139 -297 291 -212 211
-279 285 -283 308 -3 16 -5 237 -3 490 l3 461 195 195 c220 220 243 245 270
295 19 33 20 57 20 739 0 463 3 705 10 705 6 0 10 6 10 13 0 7 10 23 23 35 25
23 36 38 55 70 14 26 17 162 2 162 -5 0 -10 6 -10 13 0 16 -44 67 -59 67 -6 0
-11 5 -11 10 0 6 -9 10 -19 10 -11 0 -23 5 -26 10 -3 6 -34 10 -69 10 -51 0
-70 -5 -107 -29z" fill= "rgb(256,256,256)"/>
<path d="M5852 9259 c-44 -26 -82 -64 -82 -84 0 -8 -4 -15 -10 -15 -6 0 -10
-35 -10 -85 0 -50 4 -85 10 -85 6 0 10 -6 10 -13 0 -38 137 -117 204 -117 15
0 52 -29 109 -84 l87 -84 0 -347 c0 -322 -1 -349 -18 -364 -40 -36 -72 -108
-72 -161 0 -109 100 -210 206 -210 46 0 139 43 154 70 5 10 16 24 22 32 16 17
38 78 38 106 0 30 -23 102 -32 102 -5 0 -8 5 -8 10 0 6 -11 22 -25 36 -14 14
-27 35 -30 47 -2 12 -6 184 -7 382 -4 427 9 383 -154 551 -66 68 -72 77 -83
136 -6 35 -17 74 -24 88 -14 28 -66 77 -104 97 -38 20 -141 15 -181 -8z" fill= "rgb(256,256,256)"/>
<path d="M7487 9090 c-92 -46 -141 -147 -116 -238 7 -26 15 -49 19 -52 3 -3
20 -24 38 -46 l32 -42 0 -692 c0 -488 -3 -697 -11 -712 -6 -12 -107 -117 -224
-234 -148 -149 -220 -214 -235 -214 -12 0 -47 -7 -78 -16 -104 -30 -183 -147
-154 -229 7 -17 12 -37 12 -44 0 -6 5 -17 10 -24 6 -7 18 -22 28 -33 53 -65
182 -86 259 -43 41 23 83 67 83 87 0 6 5 12 10 12 6 0 10 23 10 51 0 28 4 59
10 69 5 10 110 119 232 243 123 123 228 231 235 239 6 9 19 39 27 69 14 46 16
146 16 769 l0 717 30 31 c17 18 30 39 30 47 0 8 5 15 10 15 6 0 10 31 10 74 0
114 -36 166 -140 203 -49 18 -99 15 -143 -7z" fill= "rgb(256,256,256)"/>
<path d="M735 8540 c-3 -5 -13 -10 -22 -10 -20 0 -71 -55 -89 -98 -16 -39 -19
-138 -4 -147 6 -3 10 -14 10 -24 0 -9 14 -30 30 -46 l30 -29 0 -1147 c0 -755
3 -1150 10 -1154 6 -3 10 -24 10 -46 0 -21 3 -39 8 -39 4 0 13 -14 21 -31 7
-17 78 -97 157 -177 79 -81 144 -152 144 -159 0 -7 -5 -24 -12 -38 -9 -19 -8
-34 2 -67 15 -46 46 -98 67 -111 6 -4 18 -13 25 -21 40 -40 147 -44 211 -9 79
45 107 94 107 191 0 41 -4 72 -10 72 -5 0 -10 6 -10 14 0 20 -69 86 -90 86
-11 0 -22 5 -25 10 -3 6 -15 10 -26 10 -22 0 -62 35 -230 204 -78 78 -110 118
-114 140 -3 17 -4 536 -3 1152 l3 1121 33 31 c17 16 32 37 32 45 0 9 5 19 10
22 6 3 10 33 10 65 0 32 -4 62 -10 65 -5 3 -10 14 -10 23 0 24 -39 66 -83 91
-28 16 -55 21 -107 21 -38 0 -72 -4 -75 -10z" fill= "rgb(256,256,256)"/>
<path d="M8065 8540 c-3 -5 -15 -10 -26 -10 -10 0 -19 -3 -19 -7 0 -5 -14 -17
-30 -28 -16 -11 -30 -26 -30 -32 0 -7 -4 -13 -10 -13 -5 0 -10 -9 -10 -19 0
-11 -4 -23 -10 -26 -5 -3 -10 -30 -10 -60 0 -30 5 -57 10 -60 6 -3 10 -15 10
-26 0 -10 5 -19 10 -19 6 0 10 -5 10 -11 0 -7 8 -19 18 -28 42 -36 42 -38 42
-642 0 -468 2 -585 13 -598 7 -9 19 -29 27 -45 8 -16 102 -117 208 -223 l192
-193 0 -60 c0 -33 4 -60 10 -60 6 0 10 -7 10 -15 0 -20 39 -59 85 -85 56 -31
173 -25 205 11 3 3 12 8 20 11 9 3 29 25 45 49 26 37 30 51 30 114 0 68 -2 74
-37 117 -39 48 -84 74 -140 84 -18 3 -43 7 -56 10 -12 2 -103 85 -202 185
l-180 180 0 565 c0 559 0 565 21 587 90 95 75 265 -29 325 -12 6 -29 12 -37
12 -8 0 -15 5 -15 10 0 6 -26 10 -59 10 -33 0 -63 -4 -66 -10z" fill= "rgb(256,256,256)"/>
<path d="M4381 8008 c-65 -32 -111 -108 -111 -184 0 -54 -2 -59 -40 -95 -22
-21 -40 -40 -40 -43 0 -6 -149 -156 -156 -156 -2 0 -31 -27 -62 -60 -54 -55
-62 -60 -103 -61 -76 -1 -131 -31 -179 -98 -20 -29 -24 -45 -23 -114 0 -43 4
-82 9 -86 5 -3 15 -18 23 -32 7 -15 25 -33 40 -40 14 -8 28 -16 31 -20 11 -11
98 -25 116 -18 10 4 31 8 47 8 15 1 27 4 27 9 0 4 12 13 28 20 35 16 68 67 77
123 4 24 13 58 20 74 15 37 352 375 373 375 8 0 40 8 70 17 58 19 142 87 142
116 0 9 5 19 10 22 6 3 10 30 10 60 0 30 -4 57 -10 60 -5 3 -10 13 -10 20 0
27 -52 80 -108 113 -34 19 -131 14 -181 -10z" fill= "rgb(256,256,256)"/>
<path d="M2025 7923 c-11 -2 -30 -6 -43 -9 -25 -5 -88 -64 -109 -102 -7 -12
-13 -51 -13 -87 0 -71 15 -111 59 -158 l26 -28 0 -258 0 -257 -28 -28 c-103
-103 -62 -293 74 -341 50 -18 79 -19 130 -3 43 12 129 87 129 111 0 9 5 19 10
22 12 8 13 99 1 123 -5 9 -14 29 -21 44 -7 15 -23 38 -34 50 -20 22 -21 33
-21 288 l0 265 33 34 c17 19 32 44 32 57 0 13 5 26 10 29 20 12 -1 145 -22
145 -5 0 -8 4 -8 10 0 48 -132 108 -205 93z" fill= "rgb(256,256,256)"/>
<path d="M195 7797 c-47 -26 -57 -38 -85 -94 -21 -45 -28 -137 -10 -148 6 -3
10 -13 10 -21 0 -15 8 -27 45 -67 20 -21 20 -36 20 -584 0 -548 0 -562 -20
-582 -34 -34 -45 -50 -45 -64 0 -7 -5 -18 -11 -24 -16 -16 -15 -85 1 -125 36
-90 103 -138 193 -138 125 0 207 81 207 204 0 50 -17 106 -32 106 -5 0 -8 5
-8 12 0 6 -10 22 -23 36 l-22 24 0 551 0 552 25 35 c14 19 27 37 30 40 19 19
30 58 30 108 0 55 -16 112 -32 112 -5 0 -8 5 -8 11 0 16 -22 35 -70 58 -60 29
-142 28 -195 -2z" fill= "rgb(256,256,256)"/>
<path d="M8678 7531 c-78 -39 -118 -102 -118 -185 0 -69 13 -100 64 -152 34
-33 53 -43 105 -54 l63 -13 189 -188 189 -188 0 -281 c0 -180 -4 -280 -10
-280 -5 0 -10 -6 -10 -14 0 -34 -54 -36 -849 -36 -722 0 -789 1 -811 17 -14 9
-27 19 -30 23 -25 29 -70 43 -135 43 -89 0 -141 -29 -182 -100 -19 -34 -26
-115 -14 -161 12 -42 64 -105 108 -129 27 -15 149 -17 158 -3 3 6 15 10 25 10
10 0 20 4 22 8 2 4 19 20 39 35 l36 27 818 0 c837 0 865 1 903 38 7 6 18 12
23 12 17 0 85 78 109 126 l25 48 0 335 c0 423 25 358 -248 631 -149 148 -168
171 -168 201 -3 79 -30 152 -75 193 -60 55 -157 71 -226 37z" fill= "rgb(256,256,256)"/>
<path d="M5251 7179 c-39 -23 -48 -32 -80 -78 -20 -28 -24 -46 -24 -108 0 -41
4 -78 9 -81 5 -4 15 -19 23 -34 8 -15 22 -37 33 -47 17 -19 18 -54 18 -713 l0
-693 -293 -292 -293 -293 -1037 0 c-1067 0 -1066 0 -1090 38 -23 36 -116 56
-187 41 -47 -10 -120 -64 -120 -88 0 -6 -4 -11 -10 -11 -5 0 -10 -9 -10 -20 0
-10 -5 -31 -12 -45 -9 -19 -8 -35 2 -67 31 -107 59 -135 159 -167 26 -8 48 -8
88 1 29 7 53 16 53 20 0 5 5 8 11 8 6 0 24 11 41 25 l30 25 1016 0 c983 0
1141 4 1150 31 2 5 12 9 23 9 10 0 19 5 19 10 0 6 7 10 16 10 20 0 618 599
640 642 37 72 38 85 44 808 l5 715 23 25 c12 13 22 30 22 37 0 7 4 13 9 13 5
0 14 23 21 50 10 40 9 59 -1 95 -7 25 -17 45 -21 45 -4 0 -8 6 -8 13 0 17 -24
40 -73 72 -49 32 -144 34 -196 4z" fill= "rgb(256,256,256)"/>
<path d="M4755 6018 c-26 -15 -76 -67 -92 -95 -7 -12 -16 -48 -19 -80 l-6 -58
-233 -232 -233 -233 -933 0 -934 0 -30 26 c-88 76 -207 70 -292 -13 -13 -12
-23 -29 -23 -37 0 -8 -5 -16 -11 -18 -16 -5 -14 -149 2 -178 41 -71 108 -110
189 -110 32 0 62 5 65 10 3 6 13 10 22 10 9 0 23 8 32 18 49 55 -15 52 990 52
656 0 935 3 960 11 34 11 50 18 96 43 11 6 123 114 249 239 127 126 238 233
248 238 9 5 41 14 70 19 89 17 129 44 163 115 42 86 11 199 -69 255 -40 27
-52 30 -118 30 -40 0 -82 -6 -93 -12z" fill= "rgb(256,256,256)"/>
<path d="M6330 5710 c-8 -5 -24 -10 -35 -10 -24 0 -105 -85 -105 -111 0 -10
-4 -19 -10 -19 -6 0 -10 -27 -10 -60 0 -33 4 -60 10 -60 6 0 10 -9 10 -19 0
-28 78 -104 121 -119 19 -7 53 -12 74 -12 36 0 48 -9 231 -191 106 -106 213
-205 237 -221 26 -17 68 -33 103 -38 35 -6 485 -10 1116 -10 581 0 1058 -4
1060 -8 2 -4 20 -18 41 -30 29 -17 54 -22 108 -22 38 0 79 6 91 13 36 20 88
69 88 83 0 7 5 14 12 16 8 3 12 31 11 85 0 68 -4 85 -22 104 -11 12 -21 26
-21 31 0 20 -86 60 -140 65 -75 7 -115 -7 -172 -62 l-47 -45 -1036 0 c-886 0
-1040 2 -1063 15 -15 7 -110 97 -211 198 -180 182 -183 185 -188 233 -7 76
-33 121 -95 169 -39 30 -129 44 -158 25z" fill= "rgb(256,256,256)"/>
<path d="M3408 4475 c-27 -20 -48 -40 -48 -47 0 -6 -8 -20 -17 -30 -13 -14
-17 -37 -17 -86 0 -55 5 -74 27 -109 42 -67 92 -93 177 -93 65 0 74 3 123 37
28 20 54 40 55 45 5 12 872 10 872 -2 0 -5 6 -10 13 -10 6 0 154 -142 327
-316 l315 -315 0 -1569 c0 -1556 0 -1568 -20 -1587 -64 -58 -85 -176 -44 -250
24 -45 76 -93 101 -93 9 0 20 -4 23 -10 9 -14 81 -12 124 2 80 28 141 113 141
196 0 51 -16 102 -32 102 -4 0 -8 6 -8 13 0 8 -9 22 -20 32 -20 18 -20 31 -20
1584 0 1506 -1 1568 -19 1622 -11 31 -26 70 -35 86 -19 38 -670 690 -696 698
-11 4 -20 11 -20 16 0 5 -9 9 -19 9 -11 0 -23 5 -26 10 -4 6 -171 10 -469 10
l-464 0 -65 45 c-64 43 -69 45 -139 45 -67 0 -77 -3 -120 -35z" fill= "rgb(256,256,256)"/>
<path d="M2788 4277 c-21 -11 -43 -33 -50 -49 -7 -15 -16 -28 -20 -28 -5 0 -8
-9 -8 -19 0 -11 -4 -23 -10 -26 -12 -8 -13 -79 -1 -103 5 -9 15 -30 22 -47 29
-64 81 -96 173 -110 57 -8 63 -13 322 -272 95 -95 175 -173 178 -173 4 0 19
-8 33 -17 61 -40 87 -43 458 -43 l360 0 27 -25 c95 -88 220 -86 307 4 42 45
51 67 51 131 0 70 -24 127 -67 159 -15 11 -33 25 -38 29 -6 5 -32 14 -58 20
-62 16 -114 2 -183 -50 l-51 -38 -315 0 c-174 0 -330 3 -348 7 -26 5 -79 51
-235 207 -111 111 -207 211 -213 223 -7 12 -12 38 -12 58 0 62 -47 132 -118
173 -36 20 -160 14 -204 -11z" fill= "rgb(256,256,256)"/>
<path d="M8610 4206 c-46 -15 -81 -35 -101 -58 -16 -17 -59 -18 -1088 -18
-1050 0 -1126 -2 -1183 -31 -10 -5 -25 -9 -33 -9 -8 0 -15 -4 -15 -9 0 -5 -8
-12 -18 -15 -19 -7 -304 -288 -311 -308 -2 -6 -10 -19 -19 -29 -43 -50 -42
-14 -42 -1695 l0 -1601 -35 -44 c-19 -24 -35 -50 -35 -56 0 -7 -4 -13 -10 -13
-6 0 -10 -33 -10 -80 0 -47 4 -80 10 -80 6 0 10 -8 10 -19 0 -43 108 -111 177
-111 60 0 105 21 155 73 40 41 48 56 53 101 7 50 -7 131 -23 138 -4 2 -22 24
-39 50 l-33 46 0 1561 c0 1227 3 1566 13 1588 6 15 75 90 151 165 l139 138
1078 0 1078 0 23 -22 c42 -42 106 -68 163 -68 30 0 57 5 60 10 3 6 14 10 23
10 9 0 37 23 63 50 51 55 66 106 54 180 -10 57 -85 135 -150 155 -57 17 -58
17 -105 1z" fill= "rgb(256,256,256)"/>
<path d="M7445 3708 c-11 -6 -22 -14 -25 -18 -3 -3 -21 -18 -41 -33 l-36 -27
-287 0 c-157 0 -294 -4 -304 -9 -9 -5 -30 -15 -47 -22 -38 -18 -106 -86 -124
-124 -7 -17 -17 -38 -22 -47 -5 -10 -9 -223 -9 -474 l0 -455 -27 -37 c-16 -20
-66 -74 -111 -119 -80 -79 -86 -83 -128 -83 -43 0 -113 -27 -140 -55 -33 -32
-64 -106 -64 -149 0 -54 42 -140 80 -165 14 -8 27 -18 30 -21 3 -3 26 -11 53
-18 69 -18 126 0 186 58 50 48 71 93 71 154 0 36 8 47 105 142 58 57 105 108
105 114 0 5 5 10 10 10 6 0 10 7 10 15 0 8 5 15 10 15 6 0 10 11 10 25 0 14 5
25 10 25 7 0 10 163 10 468 1 386 3 470 15 486 32 42 56 46 310 46 l242 0 39
-31 c62 -50 88 -59 162 -59 57 0 75 4 109 27 23 14 47 38 55 52 7 14 17 29 22
33 14 10 12 171 -2 176 -7 2 -12 9 -12 16 0 14 -52 63 -88 84 -27 15 -150 15
-177 0z" fill= "rgb(256,256,256)"/>
<path d="M8775 3708 c-11 -6 -22 -14 -25 -18 -3 -3 -21 -18 -41 -33 l-36 -27
-261 0 c-168 0 -262 -4 -262 -10 0 -5 -7 -10 -15 -10 -33 0 -70 -28 -195 -150
-332 -323 -309 -304 -383 -313 -93 -13 -153 -62 -182 -149 -15 -46 -15 -60 -4
-105 7 -29 15 -53 19 -53 4 0 10 -9 13 -20 3 -10 26 -33 53 -50 42 -26 57 -30
121 -30 42 0 73 4 73 10 0 6 7 10 15 10 17 0 72 53 93 88 6 12 12 43 12 69 l0
46 213 211 c116 116 225 217 240 224 37 16 429 17 460 1 11 -7 30 -20 41 -31
38 -36 76 -49 141 -49 103 0 168 46 199 142 15 45 16 59 5 98 -17 63 -46 105
-93 135 -34 22 -51 26 -111 26 -38 0 -79 -6 -90 -12z" fill= "rgb(256,256,256)"/>
</g>
</svg>
